<?xml version="1.0" standalone="no"?>
<!DOCTYPE svg PUBLIC "-//W3C//DTD SVG 20010904//EN"
 "http://www.w3.org/TR/2001/REC-SVG-20010904/DTD/svg10.dtd">
<svg version="1.0" xmlns="http://www.w3.org/2000/svg"
 width="1024.000000pt" height="1024.000000pt" viewBox="0 0 1024.000000 1024.000000"
 preserveAspectRatio="xMidYMid meet">
<metadata>
Created by potrace 1.11, written by Peter Selinger 2001-2013
</metadata>
<g transform="translate(0.000000,1024.000000) scale(0.100000,-0.100000)"
fill="#000000" stroke="none">
<path d="M4700 10224 c-84 -30 -153 -92 -190 -170 -17 -37 -35 -145 -31 -191
1 -14 1 -30 1 -68 0 -14 0 -32 0 -40 0 -8 0 -26 0 -40 0 -49 0 -61 -1 -127 0
-37 2 -72 6 -78 3 -5 3 -10 -2 -10 -4 0 -8 -29 -8 -65 0 -36 3 -65 7 -65 4 0
3 -13 -2 -28 -4 -16 -4 -35 1 -43 4 -8 4 -21 -1 -28 -4 -8 -4 -27 0 -42 5 -16
5 -31 0 -34 -4 -3 -4 -21 0 -40 4 -19 5 -35 1 -35 -3 0 -6 -35 -6 -77 0 -74
-1 -78 -22 -77 -13 0 -23 -2 -23 -5 0 -3 -37 -6 -83 -6 -45 0 -107 -3 -137 -7
-30 -4 -75 -9 -100 -12 -25 -3 -56 -8 -70 -11 -14 -3 -38 -8 -55 -11 -16 -3
-34 -7 -40 -8 -5 -2 -23 -6 -40 -10 -293 -74 -584 -215 -820 -398 -115 -90
-365 -341 -365 -368 0 -5 -4 -10 -8 -10 -16 0 -191 -262 -192 -287 0 -6 -3
-13 -8 -15 -9 -4 -72 -131 -72 -147 0 -6 -4 -11 -10 -11 -5 0 -10 -7 -10 -15
0 -8 -4 -23 -9 -33 -62 -122 -136 -405 -158 -603 -9 -85 -10 -387 0 -470 15
-137 68 -379 90 -406 5 -7 7 -13 3 -13 -10 0 36 -118 106 -267 46 -100 197
-343 233 -378 6 -5 29 -32 50 -60 40 -51 236 -250 290 -295 17 -14 50 -41 75
-60 25 -19 47 -37 50 -40 3 -3 39 -27 80 -55 41 -27 78 -54 82 -60 4 -5 8 -7
8 -3 0 4 25 -8 55 -27 30 -19 56 -35 59 -35 3 0 27 -13 53 -28 26 -16 51 -29
55 -31 4 -1 29 -11 55 -22 116 -51 183 -77 183 -72 0 3 6 1 13 -5 6 -6 53 -22
102 -37 50 -15 119 -35 155 -46 36 -11 74 -21 85 -24 11 -2 81 -23 155 -45 74
-23 140 -43 145 -44 6 -1 37 -10 70 -20 33 -10 65 -19 70 -20 6 -2 30 -9 55
-16 25 -8 48 -14 53 -16 4 -1 10 -3 15 -4 4 -1 12 -3 17 -5 6 -1 12 -3 15 -4
3 -2 12 -4 20 -6 8 -2 47 -13 85 -25 39 -12 84 -25 100 -30 17 -4 71 -20 120
-35 50 -15 95 -28 100 -29 6 -2 28 -8 50 -14 22 -6 42 -11 45 -10 3 1 14 -4
26 -10 11 -6 32 -13 45 -16 13 -3 71 -19 129 -36 58 -17 116 -33 129 -36 14
-3 28 -7 33 -10 8 -5 127 -41 159 -49 9 -2 49 -13 89 -25 40 -12 80 -23 89
-25 37 -7 143 -55 188 -86 128 -87 223 -229 250 -374 7 -37 8 -203 1 -230 -3
-11 -8 -33 -12 -50 -17 -66 -80 -176 -135 -233 -128 -133 -237 -181 -431 -188
-63 -3 -121 -7 -127 -9 -7 -2 -13 -1 -13 3 0 4 -21 6 -47 5 -68 -3 -95 -3
-118 -3 -11 0 -41 0 -68 0 -26 -1 -51 1 -56 5 -5 3 -12 1 -16 -5 -4 -6 -10 -8
-15 -5 -9 5 -114 9 -135 5 -5 -1 -13 -2 -18 -1 -7 1 -63 1 -97 0 -8 0 -59 1
-113 2 -53 1 -100 0 -103 -3 -3 -3 -20 -2 -38 2 -19 4 -40 4 -47 0 -7 -5 -22
-5 -33 0 -11 4 -33 4 -47 0 -15 -4 -32 -4 -39 0 -6 4 -27 4 -46 0 -18 -4 -35
-6 -37 -4 -2 3 -67 7 -143 9 -114 3 -209 16 -289 39 -5 1 -30 8 -55 15 -25 7
-54 18 -65 24 -11 6 -22 12 -25 12 -23 4 -68 26 -165 81 -134 77 -155 84 -243
80 -91 -4 -150 -36 -254 -136 -710 -689 -722 -703 -735 -814 -6 -52 -6 -50 -4
-56 1 -3 4 -21 6 -41 5 -52 43 -126 84 -168 50 -51 99 -91 110 -91 5 0 11 -4
13 -8 4 -11 155 -112 167 -112 5 0 11 -4 13 -8 4 -9 129 -80 142 -80 5 0 12
-4 15 -9 8 -11 156 -83 236 -116 71 -28 157 -61 168 -63 4 -1 9 -3 12 -4 3 -1
8 -3 13 -4 4 -1 37 -12 74 -24 66 -21 225 -61 263 -66 11 -2 45 -8 75 -14 51
-11 83 -15 200 -28 25 -2 91 -7 148 -9 56 -2 107 -7 113 -11 6 -3 9 -19 7 -35
-3 -16 -1 -29 3 -29 4 0 4 -12 0 -27 -5 -16 -5 -37 -1 -48 4 -11 5 -24 2 -29
-7 -12 -7 -69 0 -88 4 -8 3 -21 -2 -28 -4 -7 -4 -26 0 -41 5 -16 6 -29 2 -29
-4 0 -7 -16 -7 -35 0 -19 3 -35 6 -35 3 0 3 -20 -1 -44 -3 -24 -3 -52 1 -63 4
-11 4 -26 -1 -33 -4 -7 -4 -26 0 -41 5 -16 5 -42 0 -58 -4 -15 -4 -34 0 -41 5
-7 5 -23 0 -34 -4 -12 -4 -30 0 -41 4 -11 4 -29 0 -40 -4 -11 -4 -29 0 -41 5
-11 4 -27 0 -34 -4 -7 -7 -18 -5 -24 2 -6 6 -37 9 -70 7 -73 39 -138 93 -192
92 -92 122 -96 578 -92 l370 3 50 25 c75 38 141 112 166 187 11 34 18 66 15
71 -2 4 -1 14 4 21 4 8 4 27 0 42 -5 16 -6 29 -2 29 8 0 7 79 -1 86 -3 3 -2
18 3 33 4 16 4 34 0 41 -4 7 -4 25 0 40 4 15 4 33 -1 41 -4 8 -4 21 1 28 4 8
4 27 0 42 -5 16 -6 29 -2 29 4 0 7 16 7 35 0 19 -3 35 -7 35 -4 0 -3 13 2 28
4 16 4 35 -1 43 -4 8 -4 21 1 28 4 8 4 27 0 42 -5 16 -6 29 -2 29 4 0 7 16 7
35 0 19 -3 35 -7 35 -4 0 -3 13 2 29 4 15 4 34 0 41 -5 7 -5 23 0 34 4 12 4
30 0 41 -4 11 -4 29 0 40 4 11 4 30 -1 42 -5 13 -5 23 -1 24 4 1 25 2 47 4
107 6 219 16 224 19 3 2 31 7 61 11 158 19 353 74 550 153 111 44 347 169 378
199 7 7 17 13 22 13 5 0 15 6 22 13 7 7 43 34 80 60 128 91 339 297 420 412 4
5 18 24 31 40 82 108 180 281 242 430 35 85 97 282 111 355 3 14 7 32 9 40 3
8 7 33 10 55 4 22 8 51 10 65 15 101 19 167 19 325 -1 199 -3 222 -38 427 -3
15 -10 46 -16 70 -7 24 -13 50 -15 58 -2 8 -14 50 -28 92 -13 42 -22 80 -19
83 3 3 -1 5 -8 5 -7 0 -11 2 -8 6 8 7 -79 204 -133 302 -49 90 -139 227 -169
260 -11 12 -18 22 -15 22 4 0 0 6 -7 13 -7 8 -33 38 -58 68 -58 70 -190 202
-259 259 -29 25 -59 50 -65 55 -6 6 -40 31 -76 55 -36 25 -67 47 -70 51 -6 6
-56 36 -115 69 -131 74 -276 140 -296 136 -3 0 -12 4 -20 10 -13 10 -102 43
-132 48 -7 1 -51 14 -99 29 -49 15 -127 39 -175 54 -49 15 -97 28 -108 30 -11
2 -31 7 -45 12 -23 9 -113 35 -172 50 -4 1 -22 7 -40 12 -105 33 -165 51 -179
54 -8 2 -40 11 -70 20 -62 19 -113 33 -149 41 -14 3 -29 9 -34 15 -6 5 -18 9
-28 9 -11 0 -47 9 -81 20 -34 11 -71 22 -82 24 -11 2 -31 9 -45 14 -14 5 -28
10 -32 11 -4 1 -13 3 -20 5 -7 2 -76 23 -153 45 -77 23 -147 44 -155 45 -8 2
-35 10 -60 17 -25 7 -49 14 -55 15 -12 3 -380 112 -416 124 -80 25 -199 99
-245 153 -52 61 -61 74 -87 118 -53 93 -71 166 -71 284 0 143 31 246 102 345
34 47 141 148 164 156 10 3 18 10 18 15 0 5 3 8 8 7 4 -1 17 3 30 10 45 25
145 52 215 57 75 6 94 6 240 4 48 -1 90 1 93 3 3 3 20 2 38 -2 19 -4 40 -4 47
0 7 5 22 5 33 0 11 -4 33 -4 47 0 15 4 32 4 39 0 6 -4 27 -4 46 0 18 4 35 5
38 2 7 -7 185 -4 197 4 5 3 9 2 9 -3 0 -4 21 -7 47 -6 68 3 95 3 118 3 11 0
41 0 68 0 26 1 51 -1 56 -5 5 -3 12 -1 16 5 4 6 10 8 15 5 9 -5 114 -9 135 -5
6 1 13 2 17 1 4 0 58 -3 120 -5 62 -3 124 -7 138 -11 14 -3 41 -8 60 -11 19
-3 46 -9 60 -14 14 -6 34 -11 45 -13 49 -9 173 -63 261 -113 132 -76 153 -85
215 -91 81 -8 154 13 217 62 24 19 135 126 450 433 266 261 317 315 341 365
49 102 37 226 -31 325 -35 51 -197 174 -342 260 -88 52 -297 164 -303 163 -2
0 -24 9 -50 20 -60 26 -204 80 -220 83 -7 1 -16 5 -19 9 -4 4 -17 7 -29 7 -12
0 -25 3 -29 7 -3 4 -17 8 -29 10 -12 2 -29 6 -37 10 -17 7 -26 9 -60 16 -14 3
-43 10 -65 16 -22 6 -57 13 -79 17 -21 3 -47 8 -57 10 -46 10 -57 12 -114 18
-33 4 -73 9 -90 12 -16 2 -81 6 -142 8 -122 5 -137 9 -130 36 2 9 0 25 -5 34
-5 9 -5 16 -1 16 4 0 8 16 8 35 0 19 -3 35 -7 35 -4 0 -3 13 2 28 4 16 4 35
-1 43 -4 8 -4 21 1 28 4 8 4 27 0 42 -5 16 -6 29 -2 29 4 0 7 16 7 35 0 19 -3
35 -7 35 -4 0 -3 13 2 29 4 15 4 34 0 41 -4 7 -4 25 0 40 4 15 4 33 0 40 -4 7
-4 25 0 40 4 15 4 33 -1 41 -4 8 -4 21 1 28 4 8 4 27 0 42 -5 16 -6 29 -2 29
4 0 7 16 7 35 0 19 -3 35 -7 35 -4 0 -3 13 2 29 4 15 4 34 0 42 -5 7 -5 20 0
30 5 9 7 18 5 21 -3 2 -7 34 -10 71 -9 117 -73 212 -181 267 l-49 25 -390 2
c-336 2 -396 0 -435 -13z"/>
</g>
</svg>
